# This file uses centimeters as units for non-parametric coordinates.

mtllib Pengu Fin.mtl
g default
v -0.500000 2.673798 2.188758
v 0.500000 2.673798 2.188758
v -0.131375 10.286122 0.045270
v 0.131375 10.286122 0.045270
v -0.131375 10.091007 -0.503537
v 0.131375 10.091007 -0.503537
v -0.500000 2.673809 -1.503872
v 0.500000 2.673809 -1.503872
v -0.131375 10.286123 -0.098605
v 0.131375 10.286123 -0.098605
v 0.500000 2.673798 1.288903
v -0.500000 2.673798 1.288903
v -0.500000 2.673806 -0.852061
v 0.500000 2.673806 -0.852061
v 0.131375 10.286122 -0.354705
v -0.131375 10.286122 -0.354705
v -0.131375 10.286122 -0.218949
v 0.131375 10.286122 -0.218949
v 0.500000 2.673798 0.127880
v -0.500000 2.673798 0.127880
v -0.236475 8.331625 0.790979
v 0.236475 8.331625 0.790979
v 0.236475 8.331625 0.504236
v 0.236475 8.331625 0.143288
v 0.236475 8.331625 -0.451040
v 0.236475 8.331625 -0.968451
v -0.236475 8.331625 -0.968451
v -0.236475 8.331625 -0.451040
v -0.236475 8.331625 0.143288
v -0.236475 8.331625 0.504236
v -0.365432 5.986234 1.411121
v 0.365432 5.986234 1.411121
v 0.365432 5.986234 0.758912
v 0.365432 5.986234 0.160266
v 0.365432 5.986234 -0.671759
v 0.365432 5.986234 -1.283042
v -0.365432 5.986234 -1.283042
v -0.365432 5.986234 -0.671759
v -0.365432 5.986234 0.160266
v -0.365432 5.986234 0.758912
v 0.253366 7.393468 0.606106
v 0.253366 7.393468 1.100536
v -0.253366 7.393468 1.100536
v -0.253366 7.393468 0.606106
v -0.253366 7.393468 0.150079
v -0.253366 7.393468 -0.539327
v -0.253366 7.393468 -1.071144
v 0.253366 7.393468 -1.071144
v 0.253366 7.393468 -0.539327
v 0.253366 7.393468 0.150079
v -0.131375 9.504324 -0.729314
v 0.131375 9.504324 -0.729314
v 0.131375 9.504324 -0.265636
v 0.131375 9.504324 0.003231
v 0.131375 9.504324 0.219817
v 0.131375 9.504324 0.428571
v -0.131375 9.504324 0.428571
v -0.131375 9.504324 0.219817
v -0.131375 9.504324 0.003231
v -0.131375 9.504324 -0.265636
v -0.444444 4.344458 1.847483
v 0.444444 4.344458 1.847483
v 0.444444 4.344458 0.988731
v 0.444444 4.344458 0.154816
v 0.444444 4.344461 -0.815880
v 0.444444 4.344461 -1.461542
v -0.444444 4.344461 -1.461542
v -0.444444 4.344461 -0.815880
v -0.444444 4.344458 0.154816
v -0.444444 4.344458 0.988731
vt 0.375000 0.000000
vt 0.625000 0.000000
vt 0.375000 0.250000
vt 0.625000 0.250000
vt 0.375000 0.500000
vt 0.625000 0.500000
vt 0.375000 0.750000
vt 0.625000 0.750000
vt 0.375000 1.000000
vt 0.625000 1.000000
vt 0.875000 0.000000
vt 0.875000 0.250000
vt 0.125000 0.000000
vt 0.125000 0.250000
vt 0.325000 0.250000
vt 0.375000 0.300000
vt 0.625000 0.300000
vt 0.675000 0.250000
vt 0.625000 0.950000
vt 0.675000 0.000000
vt 0.325000 0.000000
vt 0.375000 0.950000
vt 0.185000 0.000000
vt 0.375000 0.810000
vt 0.625000 0.810000
vt 0.815000 0.000000
vt 0.625000 0.440000
vt 0.815000 0.250000
vt 0.185000 0.250000
vt 0.375000 0.440000
vt 0.255000 0.250000
vt 0.375000 0.370000
vt 0.625000 0.370000
vt 0.745000 0.250000
vt 0.625000 0.880000
vt 0.745000 0.000000
vt 0.255000 0.000000
vt 0.375000 0.880000
vt 0.375000 0.200000
vt 0.625000 0.200000
vt 0.675000 0.200000
vt 0.745000 0.200000
vt 0.815000 0.200000
vt 0.625000 0.550000
vt 0.875000 0.200000
vt 0.125000 0.200000
vt 0.375000 0.550000
vt 0.185000 0.200000
vt 0.255000 0.200000
vt 0.325000 0.200000
vt 0.375000 0.140000
vt 0.625000 0.140000
vt 0.675000 0.140000
vt 0.745000 0.140000
vt 0.815000 0.140000
vt 0.625000 0.610000
vt 0.875000 0.140000
vt 0.125000 0.140000
vt 0.375000 0.610000
vt 0.185000 0.140000
vt 0.255000 0.140000
vt 0.325000 0.140000
vt 0.675000 0.176000
vt 0.625000 0.176000
vt 0.375000 0.176000
vt 0.325000 0.176000
vt 0.255000 0.176000
vt 0.185000 0.176000
vt 0.125000 0.176000
vt 0.375000 0.574000
vt 0.625000 0.574000
vt 0.875000 0.176000
vt 0.815000 0.176000
vt 0.745000 0.176000
vt 0.125000 0.230000
vt 0.375000 0.520000
vt 0.625000 0.520000
vt 0.875000 0.230000
vt 0.815000 0.230000
vt 0.745000 0.230000
vt 0.675000 0.230000
vt 0.625000 0.230000
vt 0.375000 0.230000
vt 0.325000 0.230000
vt 0.255000 0.230000
vt 0.185000 0.230000
vt 0.375000 0.098000
vt 0.625000 0.098000
vt 0.675000 0.098000
vt 0.745000 0.098000
vt 0.815000 0.098000
vt 0.625000 0.652000
vt 0.875000 0.098000
vt 0.125000 0.098000
vt 0.375000 0.652000
vt 0.185000 0.098000
vt 0.255000 0.098000
vt 0.325000 0.098000
vn 0.000000 0.306048 0.952016
vn 0.000000 0.306048 0.952016
vn 0.000000 0.338234 0.941062
vn 0.000000 0.338234 0.941062
vn 0.000000 1.000000 -0.000002
vn 0.000000 1.000000 -0.000002
vn 0.000000 0.824771 -0.565467
vn 0.000000 0.824771 -0.565467
vn 0.000000 0.237294 -0.971438
vn 0.000000 0.237294 -0.971438
vn 0.000000 0.145894 -0.989300
vn 0.000000 0.145894 -0.989300
vn 0.000000 -1.000000 -0.000007
vn 0.000000 -1.000000 -0.000007
vn 0.000000 -1.000000 -0.000004
vn 0.000000 -1.000000 -0.000004
vn 0.997746 0.067101 0.000000
vn 0.997740 0.067186 0.000000
vn 0.998715 0.050672 0.000000
vn 0.998567 0.053521 0.000000
vn -0.997740 0.067186 0.000000
vn -0.997746 0.067101 0.000000
vn -0.998567 0.053521 0.000000
vn -0.998715 0.050672 0.000000
vn 0.000000 1.000000 0.000004
vn 0.000000 1.000000 0.000004
vn 0.000000 1.000000 0.000000
vn 0.000000 1.000000 0.000000
vn 0.999121 0.041912 0.000000
vn 0.998731 0.050356 0.000000
vn 0.998030 0.062735 0.000000
vn 0.997468 0.071112 0.000000
vn 0.000000 -1.000000 0.000000
vn 0.000000 -1.000000 0.000000
vn 0.000000 -1.000000 0.000000
vn 0.000000 -1.000000 0.000000
vn -0.997468 0.071112 0.000000
vn -0.998030 0.062735 0.000000
vn -0.998731 0.050356 0.000000
vn -0.999121 0.041912 0.000000
vn 0.000000 -1.000000 -0.000004
vn 0.000000 -1.000000 -0.000004
vn 0.997323 0.073123 0.000000
vn 0.998631 0.052317 0.000000
vn 0.000000 0.606489 -0.795092
vn 0.000000 0.606489 -0.795092
vn -0.998631 0.052317 0.000000
vn -0.997323 0.073123 0.000000
vn 0.000000 0.244149 0.969738
vn 0.000000 0.244149 0.969738
vn 0.000000 0.244875 0.969555
vn 0.000000 0.244875 0.969555
vn 0.998320 0.057939 0.000000
vn 0.998176 0.060370 0.000000
vn 0.998234 0.059411 0.000000
vn 0.997861 0.065372 0.000000
vn 0.998324 0.057864 0.000000
vn 0.998151 0.060790 0.000000
vn 0.998370 0.057069 0.000000
vn 0.998119 0.061313 0.000000
vn 0.998268 0.058836 0.000000
vn 0.998178 0.060341 0.000000
vn 0.000000 0.137331 -0.990525
vn 0.000000 0.137331 -0.990525
vn 0.000000 0.120763 -0.992681
vn 0.000000 0.120763 -0.992681
vn -0.998178 0.060341 0.000000
vn -0.998119 0.061313 0.000000
vn -0.998370 0.057069 0.000000
vn -0.998268 0.058836 0.000000
vn -0.998324 0.057864 0.000000
vn -0.998151 0.060790 0.000000
vn -0.998234 0.059411 0.000000
vn -0.998176 0.060370 0.000000
vn -0.997861 0.065372 0.000000
vn -0.998320 0.057939 0.000000
vn 0.000000 0.223113 0.974793
vn 0.000000 0.223113 0.974793
vn 0.999249 0.038740 0.000000
vn 0.999213 0.039675 0.000000
vn 0.999205 0.039859 0.000000
vn 0.999187 0.040314 0.000000
vn 0.999196 0.040087 0.000000
vn 0.000000 0.058419 -0.998292
vn 0.000000 0.058419 -0.998292
vn -0.999196 0.040087 0.000000
vn -0.999187 0.040314 0.000000
vn -0.999205 0.039859 0.000000
vn -0.999213 0.039675 0.000000
vn -0.999249 0.038740 0.000000
vn 0.000000 0.359158 -0.933277
vn 0.000000 0.359158 -0.933277
vn 1.000000 0.000000 0.000000
vn 1.000000 0.000000 0.000000
vn 1.000000 0.000000 0.000000
vn 1.000000 -0.000000 0.000000
vn 1.000000 -0.000000 0.000000
vn 0.000000 0.440219 0.897891
vn 0.000000 0.440219 0.897891
vn -1.000000 -0.000000 0.000000
vn -1.000000 -0.000000 0.000000
vn -1.000000 0.000000 0.000000
vn -1.000000 0.000000 0.000000
vn -1.000000 0.000000 0.000000
vn 0.000000 0.200142 0.979767
vn 0.000000 0.200142 0.979767
vn 0.999448 0.033235 0.000000
vn 0.999448 0.033235 0.000000
vn 0.999448 0.033235 0.000000
vn 0.999447 0.033235 0.000000
vn 0.999448 0.033235 0.000000
vn 0.000000 0.025329 -0.999679
vn 0.000000 0.025329 -0.999679
vn -0.999448 0.033235 0.000000
vn -0.999448 0.033235 0.000000
vn -0.999448 0.033235 0.000000
vn -0.999448 0.033235 0.000000
vn -0.999448 0.033235 0.000000
s 1
g pCube1
usemtl initialShadingGroup
f 21/39/1 22/40/2 56/82/3 57/83/4
s 2
f 17/32/5 18/33/6 15/27/7 16/30/8
s 3
f 51/76/9 52/77/10 26/44/11 27/47/12
s 4
f 13/24/13 14/25/14 19/35/15 20/38/16
s 5
f 53/79/17 54/80/18 24/42/19 25/43/20
s 6
f 59/85/21 60/86/22 28/48/23 29/49/24
s 2
f 3/3/25 4/4/26 10/17/27 9/16/28
s 5
f 22/40/29 23/41/30 55/81/31 56/82/32
s 4
f 12/22/33 11/19/34 2/10/35 1/9/36
s 6
f 57/83/37 58/84/38 30/50/39 21/39/40
s 4
f 7/7/41 8/8/42 14/25/14 13/24/13
s 5
f 52/78/43 53/79/17 25/43/20 26/45/44
s 2
f 16/30/8 15/27/7 6/6/45 5/5/46
s 6
f 27/46/47 28/48/23 60/86/22 51/75/48
s 2
f 9/16/28 10/17/27 18/33/6 17/32/5
s 5
f 54/80/18 55/81/31 23/41/30 24/42/19
s 4
f 20/38/16 19/35/15 11/19/34 12/22/33
s 6
f 58/84/38 59/85/21 29/49/24 30/50/39
s 1
f 31/51/49 32/52/50 42/64/51 43/65/52
s 5
f 32/52/53 33/53/54 41/63/55 42/64/56
f 50/74/57 41/63/55 33/53/54 34/54/58
f 49/73/59 50/74/57 34/54/58 35/55/60
f 48/72/61 49/73/59 35/55/60 36/57/62
s 3
f 47/70/63 48/71/64 36/56/65 37/59/66
s 6
f 37/58/67 38/60/68 46/68/69 47/69/70
f 45/67/71 46/68/69 38/60/68 39/61/72
f 44/66/73 45/67/71 39/61/72 40/62/74
f 43/65/75 44/66/73 40/62/74 31/51/76
s 1
f 61/87/77 62/88/78 32/52/50 31/51/49
s 5
f 62/88/79 63/89/80 33/53/54 32/52/53
f 34/54/58 33/53/54 63/89/80 64/90/81
f 35/55/60 34/54/58 64/90/81 65/91/82
f 36/57/62 35/55/60 65/91/82 66/93/83
s 3
f 37/59/66 36/56/65 66/92/84 67/95/85
s 6
f 67/94/86 68/96/87 38/60/68 37/58/67
f 39/61/72 38/60/68 68/96/87 69/97/88
f 40/62/74 39/61/72 69/97/88 70/98/89
f 31/51/76 40/62/74 70/98/89 61/87/90
s 5
f 42/64/56 41/63/55 23/41/30 22/40/29
s 1
f 43/65/52 42/64/51 22/40/2 21/39/1
s 6
f 21/39/40 30/50/39 44/66/73 43/65/75
f 30/50/39 29/49/24 45/67/71 44/66/73
f 29/49/24 28/48/23 46/68/69 45/67/71
f 47/69/70 46/68/69 28/48/23 27/46/47
s 3
f 27/47/12 26/44/11 48/71/64 47/70/63
s 5
f 26/45/44 25/43/20 49/73/59 48/72/61
f 25/43/20 24/42/19 50/74/57 49/73/59
f 24/42/19 23/41/30 41/63/55 50/74/57
s 3
f 5/5/91 6/6/92 52/77/10 51/76/9
s 5
f 15/28/93 53/79/17 52/78/43 6/12/94
f 18/34/95 54/80/18 53/79/17 15/28/93
f 10/18/96 55/81/31 54/80/18 18/34/95
f 56/82/32 55/81/31 10/18/96 4/4/97
s 1
f 57/83/4 56/82/3 4/4/98 3/3/99
s 6
f 9/15/100 58/84/38 57/83/37 3/3/101
f 17/31/102 59/85/21 58/84/38 9/15/100
f 16/29/103 60/86/22 59/85/21 17/31/102
f 51/75/48 60/86/22 16/29/103 5/14/104
s 1
f 1/1/105 2/2/106 62/88/78 61/87/77
s 5
f 2/2/107 11/20/108 63/89/80 62/88/79
f 64/90/81 63/89/80 11/20/108 19/36/109
f 65/91/82 64/90/81 19/36/109 14/26/110
f 66/93/83 65/91/82 14/26/110 8/11/111
s 3
f 67/95/85 66/92/84 8/8/112 7/7/113
s 6
f 7/13/114 13/23/115 68/96/87 67/94/86
f 69/97/88 68/96/87 13/23/115 20/37/116
f 70/98/89 69/97/88 20/37/116 12/21/117
f 61/87/90 70/98/89 12/21/117 1/1/118
